HIERARCHY
ROOT SpineBase
{
  OFFSET 0.000000 0.000000 0.000000
  CHANNELS 6 Xposition Yposition Zposition Zrotation Xrotation Yrotation
  JOINT SpineMid
  {
    OFFSET -0.000000 23.404660 0.000000
    CHANNELS 3 Zrotation Xrotation Yrotation
    JOINT SpineShoulder
    {
      OFFSET 0.128479 17.328554 -0.660254
      CHANNELS 3 Zrotation Xrotation Yrotation
      JOINT Neck
      {
        OFFSET 0.068583 5.722008 -0.487535
        CHANNELS 3 Zrotation Xrotation Yrotation
        JOINT Head
        {
          OFFSET 2.582548 10.236822 1.832901
          CHANNELS 3 Zrotation Xrotation Yrotation
          End Site
          {
            OFFSET 0 0 0
          }
        }
      }
      JOINT ShoulderLeft
      {
        OFFSET -4.543749 -4.816375 -13.057602
        CHANNELS 3 Zrotation Xrotation Yrotation
        JOINT ElbowLeft
        {
          OFFSET -2.018454 -19.820552 -4.442618
          CHANNELS 3 Zrotation Xrotation Yrotation
          JOINT WristLeft
          {
            OFFSET 2.653293 -20.212558 1.133276
            CHANNELS 3 Zrotation Xrotation Yrotation
            JOINT HandLeft
            {
              OFFSET 0.660971 -3.398952 1.263156
              CHANNELS 3 Zrotation Xrotation Yrotation
              JOINT HandTipLeft
              {
                OFFSET 1.364784 -6.502901 -0.190911
                CHANNELS 3 Zrotation Xrotation Yrotation
                End Site
                {
                  OFFSET 0 0 0
                }
              }
              JOINT ThumbLeft
              {
                OFFSET 1.866347 1.146774 -1.211364
                CHANNELS 3 Zrotation Xrotation Yrotation
                End Site
                {
                  OFFSET 0 0 0
                }
              }
            }
          }
        }
      }
      JOINT ShoulderRight
      {
        OFFSET 7.466743 -5.196001 11.952568
        CHANNELS 3 Zrotation Xrotation Yrotation
        JOINT ElbowRight
        {
          OFFSET -8.122786 -16.487983 -21.340990
          CHANNELS 3 Zrotation Xrotation Yrotation
          JOINT WristRight
          {
            OFFSET -6.972227 -8.058019 18.022056
            CHANNELS 3 Zrotation Xrotation Yrotation
            JOINT HandRight
            {
              OFFSET -2.360803 -2.706530 6.302280
              CHANNELS 3 Zrotation Xrotation Yrotation
              JOINT HandTipRight
              {
                OFFSET -0.029555 -0.524414 -0.234700
                CHANNELS 3 Zrotation Xrotation Yrotation
                End Site
                {
                  OFFSET 0 0 0
                }
              }
              JOINT ThumbRight
              {
                OFFSET 0.365879 1.439044 1.263873
                CHANNELS 3 Zrotation Xrotation Yrotation
                End Site
                {
                  OFFSET 0 0 0
                }
              }
            }
          }
        }
      }
    }
  }
  JOINT HipLeft
  {
    OFFSET -2.236488 0.865880 -8.004706
    CHANNELS 3 Zrotation Xrotation Yrotation
    JOINT KneeLeft
    {
      OFFSET -0.782474 -31.656571 -4.525638
      CHANNELS 3 Zrotation Xrotation Yrotation
      JOINT AnkleLeft
      {
        OFFSET -9.679097 -30.722997 9.517735
        CHANNELS 3 Zrotation Xrotation Yrotation
        JOINT FootLeft
        {
          OFFSET 7.223351 -3.864846 -5.697333
          CHANNELS 3 Zrotation Xrotation Yrotation
          End Site
          {
            OFFSET 0 0 0
          }
        }
      }
    }
  }
  JOINT HipRight
  {
    OFFSET 2.831181 -0.366003 2.835851
    CHANNELS 3 Zrotation Xrotation Yrotation
    JOINT KneeRight
    {
      OFFSET -13.781215 -40.612780 -1.510485
      CHANNELS 3 Zrotation Xrotation Yrotation
      JOINT AnkleRight
      {
        OFFSET -8.377679 -35.414794 3.675180
        CHANNELS 3 Zrotation Xrotation Yrotation
        JOINT FootRight
        {
          OFFSET 0.422029 -4.267280 7.031946
          CHANNELS 3 Zrotation Xrotation Yrotation
          End Site
          {
            OFFSET 0 0 0
          }
        }
      }
    }
  }
}
MOTION
Frames: 13
Frame Time: 0.033333
-37.219783 85.111296 350.562427 -19.256435 -0.356369 -36.355427 -0.072118 0.120605 35.581212 0.148900 0.922778 -0.755022 -0.876019 10.870326 4.032564 0.000000 0.000000 0.000000 44.242594 -2.332145 -3.322064 -1.352621 -2.992616 6.719853 -8.161562 15.772655 5.371166 26.236429 9.564942 -5.782567 0.000000 0.000000 0.000000 0.000000 0.000000 0.000000 103.056523 -60.175436 113.988686 36.191490 61.494438 -57.142297 -71.651147 -74.739383 -40.849855 101.085391 61.913314 -95.303795 0.000000 0.000000 0.000000 0.000000 0.000000 0.000000 26.872904 -1.017372 33.746349 -18.979794 6.993344 1.570655 -41.875784 -32.291828 -8.319805 0.000000 0.000000 0.000000 25.033397 9.769949 35.017426 4.505281 8.354575 -2.443379 -30.656568 69.414475 63.244682 0.000000 0.000000 0.000000
-37.432902 85.259728 350.563306 -19.720279 0.020532 -38.857338 0.249329 0.341763 38.136351 0.140410 1.040694 -0.741424 -1.352495 10.997173 4.056836 0.000000 0.000000 0.000000 44.303879 -4.075544 -2.581881 -2.699442 0.363246 6.114051 -5.616373 13.248179 5.520324 25.060505 9.800627 -6.579888 0.000000 0.000000 0.000000 0.000000 0.000000 0.000000 103.953225 -60.131232 114.918482 36.188893 61.493915 -57.137019 -71.655662 -74.738255 -40.853155 103.302906 61.315476 -97.545776 0.000000 0.000000 0.000000 0.000000 0.000000 0.000000 27.292293 -0.130910 36.070703 -18.241720 7.194827 1.535138 -41.916015 -31.931149 -8.897571 0.000000 0.000000 0.000000 25.165225 11.022549 37.247498 4.462782 8.037911 -2.296953 -28.311970 68.288952 63.190813 0.000000 0.000000 0.000000
-37.749512 85.330800 350.453256 -20.327706 0.483267 -41.805109 0.526136 0.615309 41.156614 0.132980 1.063445 -0.748699 -1.571112 10.725173 4.089217 0.000000 0.000000 0.000000 44.134221 -4.688330 -2.126199 -1.704454 0.377347 5.959037 -4.658734 12.717475 5.791580 23.837435 10.438599 -7.557823 0.000000 0.000000 0.000000 0.000000 0.000000 0.000000 105.017629 -60.063418 115.874795 36.188482 61.494086 -57.134369 -71.655468 -74.736234 -40.851950 108.426782 60.416172 -102.327340 0.000000 0.000000 0.000000 0.000000 0.000000 0.000000 28.181905 0.836525 38.727268 -18.037957 7.835739 1.584526 -41.426281 -31.511926 -10.031080 0.000000 0.000000 0.000000 25.298089 12.589014 39.855158 4.515440 7.639093 -2.112729 -32.164660 69.480084 69.159495 0.000000 0.000000 0.000000
-38.059667 85.353433 350.254492 -20.829374 0.939132 -44.199789 0.729389 0.821318 43.624172 0.170040 0.954611 -0.772918 -2.019342 9.947538 4.229790 0.000000 0.000000 0.000000 43.929334 -4.438032 -2.019763 0.129818 -1.283287 6.136492 -4.588811 12.863917 6.011281 22.790912 11.430915 -8.575826 0.000000 0.000000 0.000000 0.000000 0.000000 0.000000 105.738066 -60.012438 116.494611 36.186071 61.494361 -57.129355 -71.663181 -74.735850 -40.858418 115.986908 58.901735 -109.173863 0.000000 0.000000 0.000000 0.000000 0.000000 0.000000 28.951860 1.541063 40.903024 -17.639098 8.549385 1.623202 -41.510928 -31.323090 -11.350348 0.000000 0.000000 0.000000 25.282864 13.836444 42.008997 4.894699 7.347876 -1.977036 -50.513502 72.960002 89.743162 0.000000 0.000000 0.000000
-38.359787 85.207767 350.102747 -21.188476 1.271527 -45.531096 0.747474 0.988743 45.026932 0.155097 0.875807 -0.797643 -2.426299 9.161210 4.369762 0.000000 0.000000 0.000000 43.698723 -4.308961 -1.846223 3.300251 -2.462062 6.337093 -5.439900 13.407737 6.310265 21.305496 11.855136 -9.512000 0.000000 0.000000 0.000000 0.000000 0.000000 0.000000 106.553137 -59.946218 117.146869 36.188344 61.495510 -57.130575 -71.653879 -74.732392 -40.848755 123.219898 57.706775 -115.274444 0.000000 0.000000 0.000000 0.000000 0.000000 0.000000 29.609619 2.107025 42.038180 -18.027813 8.870168 1.666233 -40.613808 -30.994036 -12.041474 0.000000 0.000000 0.000000 25.259972 14.571716 43.205161 5.324697 7.009312 -1.830706 -66.191105 74.111796 106.021374 0.000000 0.000000 0.000000
-38.669980 84.906581 349.993949 -21.451946 1.577339 -46.141798 0.615636 1.140915 45.724794 0.129036 0.836135 -0.818514 -2.775217 8.527268 4.455667 0.000000 0.000000 0.000000 44.007236 -5.408042 -1.325650 4.919142 -2.286564 6.182858 -5.541089 13.357923 6.563667 20.105752 12.534595 -10.422301 0.000000 0.000000 0.000000 0.000000 0.000000 0.000000 107.610349 -59.852953 118.044938 36.193810 61.497052 -57.136240 -71.633747 -74.726849 -40.828889 127.374297 57.511578 -118.455774 0.000000 0.000000 0.000000 0.000000 0.000000 0.000000 30.253907 2.303695 42.544396 -18.344283 9.117275 1.757577 -39.860689 -30.756801 -11.906039 0.000000 0.000000 0.000000 25.381797 14.874898 43.777249 5.729721 6.650642 -1.691154 -70.597601 74.235462 110.898983 0.000000 0.000000 0.000000
-38.919706 84.498092 349.917920 -21.539711 1.824765 -46.272198 0.379521 1.169036 45.929694 0.111833 0.783171 -0.840323 -2.984460 7.917039 4.513282 0.000000 0.000000 0.000000 43.905085 -6.121363 -0.890081 8.683339 -3.323187 6.245008 -5.747907 13.269330 7.073948 17.751993 14.269185 -12.333456 0.000000 0.000000 0.000000 0.000000 0.000000 0.000000 108.520190 -59.764093 118.802784 36.201258 61.498764 -57.144776 -71.607881 -74.720252 -40.803695 128.689202 57.619620 -119.386360 0.000000 0.000000 0.000000 0.000000 0.000000 0.000000 30.638924 2.190989 42.698477 -18.516922 8.993541 1.854248 -38.781866 -30.287829 -10.605903 0.000000 0.000000 0.000000 25.437252 14.805099 43.966800 6.197897 6.152629 -1.514269 -71.691730 74.593384 111.432222 0.000000 0.000000 0.000000
-39.131121 84.087238 349.843382 -21.532473 1.976752 -45.887718 0.121330 1.120288 45.593993 0.111740 0.678977 -0.868059 -3.087526 8.158340 4.536785 0.000000 0.000000 0.000000 43.791724 -6.738111 -0.553421 10.681315 -2.942387 6.010388 -5.855289 13.208247 7.360848 16.707688 15.133042 -13.218829 0.000000 0.000000 0.000000 0.000000 0.000000 0.000000 109.091801 -59.702294 119.216041 36.209740 61.500679 -57.154865 -71.577879 -74.713333 -40.774689 130.158997 56.527874 -120.864516 0.000000 0.000000 0.000000 0.000000 0.000000 0.000000 30.824727 1.918450 42.402603 -18.580354 8.695058 1.931930 -38.068342 -29.873538 -9.336064 0.000000 0.000000 0.000000 25.608677 14.477702 43.679824 6.705914 6.092577 -1.506420 -58.720093 74.661656 94.783230 0.000000 0.000000 0.000000
-39.206169 83.663111 349.856084 -21.284107 1.912133 -45.383121 -0.211649 0.975493 45.090881 0.123325 0.545803 -0.893838 -3.345686 9.174848 4.585381 0.000000 0.000000 0.000000 43.603231 -7.020608 -0.430853 11.161424 -1.345828 5.564795 -5.877604 13.164360 7.464422 15.798343 13.237523 -12.803326 0.000000 0.000000 0.000000 0.000000 0.000000 0.000000 109.092789 -59.696960 119.123476 36.218142 61.502342 -57.165316 -71.549288 -74.707281 -40.747259 127.634820 56.995764 -118.847031 0.000000 0.000000 0.000000 0.000000 0.000000 0.000000 30.541582 1.581226 42.036853 -18.385987 8.184846 1.977617 -37.750252 -29.542905 -7.680925 0.000000 0.000000 0.000000 25.469472 14.041833 43.296145 7.173193 6.196639 -1.564829 -63.883609 75.220109 98.455439 0.000000 0.000000 0.000000
-39.402184 83.364495 349.802958 -21.393926 1.986213 -45.366929 -0.201202 0.940257 45.079908 0.066482 0.616080 -0.893558 -3.404256 9.891311 4.598150 0.000000 0.000000 0.000000 43.606472 -7.327746 -0.252073 10.268852 0.584442 5.107485 -5.818957 13.158739 7.360080 15.952526 10.918245 -11.758324 0.000000 0.000000 0.000000 0.000000 0.000000 0.000000 109.464257 -59.655246 119.341971 36.224508 61.501921 -57.174372 -71.528864 -74.703943 -40.728085 124.716518 58.793936 -115.955732 0.000000 0.000000 0.000000 0.000000 0.000000 0.000000 30.737259 1.624226 41.991365 -18.315045 7.991748 2.045955 -37.771592 -29.415563 -6.990793 0.000000 0.000000 0.000000 25.839825 14.019401 43.278117 7.431005 6.488238 -1.697238 -48.785333 74.009344 80.217821 0.000000 0.000000 0.000000
-39.458063 83.097720 349.931705 -21.415547 1.895514 -45.360769 -0.300000 0.904408 45.060245 0.020140 0.606567 -0.904863 -2.698686 10.452801 4.484283 0.000000 0.000000 0.000000 43.774632 -7.623382 -0.159153 7.528378 3.348895 4.620879 -5.659404 13.205393 6.999218 17.304749 8.094591 -9.825496 0.000000 0.000000 0.000000 0.000000 0.000000 0.000000 109.530454 -59.643316 119.235019 36.231643 61.502102 -57.183900 -71.503791 -74.699236 -40.704244 121.154291 60.910645 -112.310065 0.000000 0.000000 0.000000 0.000000 0.000000 0.000000 30.591478 1.725216 41.960368 -18.090752 7.736356 2.045433 -41.050434 -30.958300 -7.638384 0.000000 0.000000 0.000000 25.827552 14.027110 43.258528 7.511795 6.522957 -1.724745 -26.798093 67.867369 54.928311 0.000000 0.000000 0.000000
-39.474708 82.934544 350.072544 -21.478344 1.791476 -45.489002 -0.328204 0.859010 45.163289 0.004346 0.573695 -0.916492 -1.595277 10.870381 4.292114 0.000000 0.000000 0.000000 43.889630 -7.457395 -0.244746 3.856021 5.123904 4.539364 -5.441264 13.306698 6.448802 20.135592 5.650233 -7.521132 0.000000 0.000000 0.000000 0.000000 0.000000 0.000000 109.394222 -59.653283 118.935020 36.235716 61.501382 -57.189879 -71.489492 -74.696942 -40.690838 118.409632 62.336946 -109.486700 0.000000 0.000000 0.000000 0.000000 0.000000 0.000000 30.503267 1.833558 42.040093 -17.802080 7.818497 2.028526 -38.578735 -29.592717 -6.672429 0.000000 0.000000 0.000000 25.834458 14.097472 43.357661 7.504736 6.679517 -1.804371 -17.188149 60.888012 43.805161 0.000000 0.000000 0.000000
-39.494331 82.791897 350.077873 -21.523693 1.759819 -46.047387 -0.284330 0.772284 45.695821 0.008343 0.509028 -0.929694 -0.997792 11.335041 4.194649 0.000000 0.000000 0.000000 44.023464 -6.812233 -0.515463 0.180497 5.675265 4.786072 -5.226447 13.429695 5.885889 23.139980 4.281862 -5.439380 0.000000 0.000000 0.000000 0.000000 0.000000 0.000000 109.117750 -59.678902 118.546151 36.235870 61.499874 -57.191087 -71.488198 -74.697575 -40.689962 116.875812 63.120491 -107.878436 0.000000 0.000000 0.000000 0.000000 0.000000 0.000000 30.709964 1.945257 42.497423 -17.776458 8.381306 2.075553 -36.311066 -28.387057 -6.792628 0.000000 0.000000 0.000000 25.717675 14.326942 43.876120 7.757118 6.947222 -1.921146 -24.638873 66.151054 54.504916 0.000000 0.000000 0.000000
